# xmcd CD database file
#
# Track frame offsets:
#	150
#	12553
#	25106
#	38140
#	50537
#	63668
#	75600
#	88100
#	99974
#	112606
#	125370
#	139502
#	150834
#	163266
#	175913
#	187647
#	200928
#	212092
#	220367
#	233467
#	245693
#	262585
#
# Disc length: 3873 seconds
#
# Revision: 1
# Processed by: cddbd v1.5.2PL0 Copyright (c) Steve Scherf et al.
# Submitted via: CDex 1.81
#
DISCID=1c0f1f16
DTITLE=John Kirby - John Kirby
DYEAR=1996
DGENRE=Jazz
TTITLE0=It Feels Good
TTITLE1=Sweet Georgia Brown
TTITLE2=Front And Center
TTITLE3=Andiology
TTITLE4=Coquette
TTITLE5=Zooming At The Zombie
TTITLE6=Opus 5
TTITLE7=Blue Skies
TTITLE8=Jumpin' In The Pump Room
TTITLE9=20th Century Closet
TTITLE10=Blues Petite
TTITLE11=Royal Garden Blues
TTITLE12=Can't We Be Friends?
TTITLE13=Beethoven Riffs On
TTITLE14=Rehearsin' For a Nervous Breakdown
TTITLE15=Undecided
TTITLE16=Prelude For Trumpet
TTITLE17=Ida! Sweet As Apple Cider
TTITLE18=The Peanut Vendor
TTITLE19=Revolutionary Etude
TTITLE20=Blue Fantasy
TTITLE21=Echoes Of Harlem
EXTD=YEAR: 1996
EXTT0=
EXTT1=
EXTT2=
EXTT3=
EXTT4=
EXTT5=
EXTT6=
EXTT7=
EXTT8=
EXTT9=
EXTT10=
EXTT11=
EXTT12=
EXTT13=
EXTT14=
EXTT15=
EXTT16=
EXTT17=
EXTT18=
EXTT19=
EXTT20=
EXTT21=
PLAYORDER=
